<svg width="1200" height="674" viewBox="0 0 1200 674" fill="none" xmlns="http://www.w3.org/2000/svg">
<path fill-rule="evenodd" clip-rule="evenodd" d="M-110.118 64.6751C-111.001 64.9738 -111.734 65.6255 -112.155 66.4869C-112.577 67.3482 -112.652 68.3486 -112.365 69.268C-112.078 70.1874 -111.453 70.9505 -110.626 71.3893C-109.798 71.8282 -108.838 71.9069 -107.955 71.6082L-81.7154 62.7293L-79.6756 65.3241L-95.6058 70.7145C-96.0997 70.8101 -96.5683 71.0143 -96.9804 71.3136C-97.3924 71.6129 -97.7383 72.0003 -97.9951 72.45C-98.2519 72.8996 -98.4135 73.4012 -98.4692 73.9211C-98.5249 74.441 -98.4735 74.9673 -98.3182 75.4649C-98.163 75.9624 -97.9076 76.4198 -97.569 76.8063C-97.2305 77.1928 -96.8167 77.4996 -96.3552 77.7062C-95.8936 77.9128 -95.3951 78.0145 -94.8928 78.0044C-94.3906 77.9943 -93.8962 77.8727 -93.4427 77.6477L-71.9013 70.3585L-72.326 106.068L-61.1511 102.287L-60.9062 68.6967C-60.8389 57.7238 -58.0536 52.1933 -54.6206 51.0645C-50.4645 49.6581 -50.9725 56.0168 -51.0105 59.5009L-51.4313 98.9979L-40.38 95.2584L-40.1275 61.4905C-40.1399 54.5085 -38.5831 45.7144 -33.8495 44.036C-29.4868 42.4831 -30.193 49.9929 -30.2238 52.489L-30.8124 92.0209L-19.628 88.2364L-19.1 44.8706C-18.9775 37.613 -24.1159 34.5228 -30.3263 36.6242C-34.8058 38.14 -38.2997 41.9721 -40.5485 46.7956C-42.9406 43.5096 -46.403 42.1518 -51.3637 43.7428C-54.3967 44.7967 -57.0763 46.7332 -59.0858 49.3232C-64.454 43.4746 -73.8027 41.4148 -81.1259 43.8928L-124.313 58.5064C-124.797 58.6124 -125.253 58.8231 -125.653 59.1248C-126.053 59.4265 -126.388 59.8124 -126.635 60.2576C-126.882 60.7028 -127.037 61.1971 -127.089 61.7086C-127.141 62.2201 -127.088 62.7372 -126.936 63.2263C-126.783 63.7155 -126.534 64.1657 -126.203 64.5478C-125.872 64.9298 -125.468 65.2351 -125.017 65.4439C-124.565 65.6526 -124.077 65.7601 -123.583 65.7593C-123.089 65.7586 -122.601 65.6496 -122.15 65.4395L-88.5209 54.0601L-86.4525 56.6453L-110.118 64.6751ZM-65.0725 17.2613C-55.1041 13.8774 -44.396 13.6486 -34.3028 16.6037C-24.2095 19.5588 -15.1847 25.5651 -8.36986 33.8628C-1.55506 42.1605 2.74348 52.3767 3.98194 63.219C5.22041 74.0613 3.34315 85.0426 -1.41232 94.7736C-6.16779 104.505 -13.5878 112.548 -22.7337 117.887C-31.8796 123.225 -42.3404 125.619 -52.7929 124.765C-63.2453 123.911 -73.2196 119.847 -81.4541 113.088C-89.6885 106.33 -95.8131 97.1794 -99.053 86.795C-99.2631 86.1215 -99.4733 85.448 -99.671 84.8141L-94.5734 83.0892C-94.3632 83.7627 -94.1562 84.4263 -93.9553 85.0701C-90.6388 95.7085 -83.9656 104.867 -75.0199 111.057C-66.0742 117.246 -55.3816 120.105 -44.6792 119.166C-33.9768 118.228 -23.8933 113.549 -16.0669 105.889C-8.24058 98.2293 -3.13114 88.0385 -1.56865 76.9724C-0.00617211 65.9063 -2.08247 54.6151 -7.46024 44.9332C-12.838 35.2512 -21.2013 27.7473 -31.1914 23.6405C-41.1815 19.5337 -52.2115 19.0654 -62.4895 22.3115C-72.7675 25.5577 -81.6897 32.3276 -87.8065 41.5215L-95.5861 44.1539C-89.194 31.3701 -78.236 21.7125 -65.0725 17.2613Z" fill="white" fill-opacity="0.04"/>
<path fill-rule="evenodd" clip-rule="evenodd" d="M291.882 64.6751C290.999 64.9738 290.266 65.6256 289.845 66.4869C289.423 67.3482 289.348 68.3486 289.635 69.268C289.922 70.1874 290.547 70.9505 291.374 71.3893C292.202 71.8282 293.162 71.9069 294.045 71.6082L320.285 62.7293L322.324 65.3242L306.394 70.7146C305.9 70.8101 305.432 71.0144 305.02 71.3136C304.608 71.6129 304.262 72.0003 304.005 72.45C303.748 72.8996 303.587 73.4012 303.531 73.9211C303.475 74.441 303.527 74.9674 303.682 75.4649C303.837 75.9625 304.092 76.4198 304.431 76.8063C304.769 77.1928 305.183 77.4996 305.645 77.7062C306.106 77.9129 306.605 78.0145 307.107 78.0044C307.609 77.9943 308.104 77.8727 308.557 77.6477L330.099 70.3586L329.674 106.068L340.849 102.287L341.094 68.6967C341.161 57.7238 343.946 52.1933 347.379 51.0645C351.536 49.6581 351.028 56.0169 350.989 59.5009L350.569 98.9979L361.62 95.2584L361.872 61.4905C361.86 54.5085 363.417 45.7144 368.151 44.036C372.513 42.4831 371.807 49.9929 371.776 52.4891L371.188 92.021L382.372 88.2364L382.9 44.8706C383.023 37.613 377.884 34.5228 371.674 36.6242C367.194 38.14 363.7 41.9721 361.451 46.7956C359.059 43.5097 355.597 42.1518 350.636 43.7428C347.603 44.7968 344.924 46.7332 342.914 49.3232C337.546 43.4746 328.197 41.4148 320.874 43.8928L277.687 58.5064C277.203 58.6124 276.747 58.8231 276.347 59.1248C275.947 59.4265 275.612 59.8125 275.365 60.2576C275.118 60.7028 274.963 61.1972 274.911 61.7086C274.859 62.2201 274.912 62.7372 275.064 63.2264C275.217 63.7155 275.466 64.1657 275.797 64.5478C276.128 64.9298 276.532 65.2351 276.983 65.4439C277.435 65.6526 277.923 65.7601 278.417 65.7593C278.911 65.7586 279.399 65.6496 279.85 65.4395L313.479 54.0602L315.547 56.6453L291.882 64.6751ZM336.928 17.2613C346.896 13.8775 357.604 13.6486 367.697 16.6037C377.79 19.5588 386.815 25.5651 393.63 33.8628C400.445 42.1605 404.743 52.3767 405.982 63.219C407.22 74.0613 405.343 85.0426 400.588 94.7736C395.832 104.505 388.412 112.548 379.266 117.887C370.12 123.225 359.66 125.619 349.207 124.765C338.755 123.911 328.78 119.847 320.546 113.088C312.311 106.33 306.187 97.1794 302.947 86.795C302.737 86.1215 302.527 85.448 302.329 84.8141L307.427 83.0892C307.637 83.7627 307.844 84.4263 308.045 85.0701C311.361 95.7086 318.034 104.867 326.98 111.057C335.926 117.246 346.618 120.105 357.321 119.166C368.023 118.228 378.107 113.549 385.933 105.889C393.759 98.2293 398.869 88.0385 400.431 76.9724C401.994 65.9063 399.918 54.6152 394.54 44.9332C389.162 35.2512 380.799 27.7473 370.809 23.6405C360.818 19.5338 349.788 19.0654 339.51 22.3115C329.232 25.5577 320.31 32.3276 314.194 41.5215L306.414 44.1539C312.806 31.3701 323.764 21.7125 336.928 17.2613Z" fill="white" fill-opacity="0.04"/>
<path fill-rule="evenodd" clip-rule="evenodd" d="M694.019 64.6751C693.136 64.9738 692.403 65.6255 691.982 66.4869C691.56 67.3482 691.485 68.3486 691.772 69.268C692.058 70.1874 692.684 70.9505 693.511 71.3893C694.338 71.8282 695.299 71.9069 696.182 71.6082L722.422 62.7293L724.461 65.3241L708.531 70.7145C708.037 70.8101 707.569 71.0143 707.157 71.3136C706.745 71.6129 706.399 72.0003 706.142 72.45C705.885 72.8996 705.723 73.4012 705.668 73.9211C705.612 74.441 705.663 74.9673 705.819 75.4649C705.974 75.9624 706.229 76.4198 706.568 76.8063C706.906 77.1928 707.32 77.4996 707.782 77.7062C708.243 77.9128 708.742 78.0145 709.244 78.0044C709.746 77.9943 710.241 77.8727 710.694 77.6477L732.236 70.3585L731.811 106.068L742.986 102.287L743.231 68.6967C743.298 57.7238 746.083 52.1933 749.516 51.0645C753.672 49.6581 753.164 56.0168 753.126 59.5009L752.706 98.9979L763.757 95.2584L764.009 61.4905C763.997 54.5085 765.554 45.7144 770.287 44.036C774.65 42.4831 773.944 49.9929 773.913 52.489L773.325 92.0209L784.509 88.2364L785.037 44.8706C785.159 37.613 780.021 34.5228 773.811 36.6242C769.331 38.14 765.837 41.9721 763.588 46.7956C761.196 43.5097 757.734 42.1518 752.773 43.7428C749.74 44.7967 747.061 46.7332 745.051 49.3232C739.683 43.4746 730.334 41.4148 723.011 43.8928L679.824 58.5064C679.34 58.6124 678.884 58.8231 678.484 59.1248C678.084 59.4265 677.749 59.8124 677.502 60.2576C677.255 60.7028 677.1 61.1971 677.048 61.7086C676.996 62.2201 677.048 62.7372 677.201 63.2263C677.354 63.7155 677.603 64.1657 677.934 64.5478C678.265 64.9298 678.669 65.2351 679.12 65.4439C679.572 65.6526 680.06 65.7601 680.554 65.7593C681.048 65.7586 681.536 65.6496 681.987 65.4395L715.616 54.0601L717.684 56.6453L694.019 64.6751ZM739.064 17.2613C749.033 13.8774 759.741 13.6486 769.834 16.6037C779.927 19.5588 788.952 25.5651 795.767 33.8628C802.582 42.1605 806.88 52.3767 808.119 63.219C809.357 74.0613 807.48 85.0426 802.725 94.7736C797.969 104.505 790.549 112.548 781.403 117.887C772.257 123.225 761.796 125.619 751.344 124.765C740.892 123.911 730.917 119.847 722.683 113.088C714.448 106.33 708.324 97.1794 705.084 86.795C704.874 86.1215 704.664 85.448 704.466 84.8141L709.564 83.0892C709.774 83.7627 709.981 84.4263 710.182 85.0701C713.498 95.7085 720.171 104.867 729.117 111.057C738.063 117.246 748.755 120.105 759.458 119.166C770.16 118.228 780.244 113.549 788.07 105.889C795.896 98.2293 801.006 88.0385 802.568 76.9724C804.131 65.9063 802.054 54.6151 796.677 44.9332C791.299 35.2512 782.936 27.7473 772.945 23.6405C762.955 19.5337 751.925 19.0654 741.647 22.3115C731.369 25.5577 722.447 32.3276 716.33 41.5215L708.551 44.1539C714.943 31.3701 725.901 21.7125 739.064 17.2613Z" fill="white" fill-opacity="0.04"/>
<path fill-rule="evenodd" clip-rule="evenodd" d="M1096.02 64.6751C1095.14 64.9738 1094.4 65.6255 1093.98 66.4869C1093.56 67.3482 1093.48 68.3486 1093.77 69.268C1094.06 70.1874 1094.68 70.9505 1095.51 71.3893C1096.34 71.8282 1097.3 71.9069 1098.18 71.6082L1124.42 62.7293L1126.46 65.3241L1110.53 70.7145C1110.04 70.8101 1109.57 71.0143 1109.16 71.3136C1108.74 71.6129 1108.4 72.0003 1108.14 72.45C1107.89 72.8996 1107.72 73.4012 1107.67 73.9211C1107.61 74.441 1107.66 74.9673 1107.82 75.4649C1107.97 75.9624 1108.23 76.4198 1108.57 76.8063C1108.91 77.1928 1109.32 77.4996 1109.78 77.7062C1110.24 77.9128 1110.74 78.0145 1111.24 78.0044C1111.75 77.9943 1112.24 77.8727 1112.69 77.6477L1134.24 70.3585L1133.81 106.068L1144.99 102.287L1145.23 68.6967C1145.3 57.7238 1148.08 52.1933 1151.52 51.0645C1155.67 49.6581 1155.16 56.0168 1155.13 59.5009L1154.71 98.9979L1165.76 95.2584L1166.01 61.4905C1166 54.5085 1167.55 45.7144 1172.29 44.036C1176.65 42.4831 1175.94 49.9929 1175.91 52.489L1175.32 92.0209L1186.51 88.2364L1187.04 44.8706C1187.16 37.613 1182.02 34.5228 1175.81 36.6242C1171.33 38.14 1167.84 41.9721 1165.59 46.7956C1163.2 43.5097 1159.73 42.1518 1154.77 43.7428C1151.74 44.7967 1149.06 46.7332 1147.05 49.3232C1141.68 43.4746 1132.33 41.4148 1125.01 43.8928L1081.82 58.5064C1081.34 58.6124 1080.88 58.8231 1080.48 59.1248C1080.08 59.4265 1079.75 59.8124 1079.5 60.2576C1079.25 60.7028 1079.1 61.1971 1079.05 61.7086C1079 62.2201 1079.05 62.7372 1079.2 63.2263C1079.35 63.7155 1079.6 64.1657 1079.93 64.5478C1080.26 64.9298 1080.67 65.2351 1081.12 65.4439C1081.57 65.6526 1082.06 65.7601 1082.55 65.7593C1083.05 65.7586 1083.54 65.6496 1083.99 65.4395L1117.62 54.0601L1119.68 56.6453L1096.02 64.6751ZM1141.06 17.2613C1151.03 13.8774 1161.74 13.6486 1171.83 16.6037C1181.93 19.5588 1190.95 25.5651 1197.77 33.8628C1204.58 42.1605 1208.88 52.3767 1210.12 63.219C1211.36 74.0613 1209.48 85.0426 1204.72 94.7736C1199.97 104.505 1192.55 112.548 1183.4 117.887C1174.26 123.225 1163.8 125.619 1153.34 124.765C1142.89 123.911 1132.92 119.847 1124.68 113.088C1116.45 106.33 1110.32 97.1794 1107.08 86.795C1106.87 86.1215 1106.66 85.448 1106.47 84.8141L1111.56 83.0892C1111.77 83.7627 1111.98 84.4263 1112.18 85.0701C1115.5 95.7085 1122.17 104.867 1131.12 111.057C1140.06 117.246 1150.76 120.105 1161.46 119.166C1172.16 118.228 1182.24 113.549 1190.07 105.889C1197.9 98.2293 1203.01 88.0385 1204.57 76.9724C1206.13 65.9063 1204.05 54.6151 1198.68 44.9332C1193.3 35.2512 1184.94 27.7473 1174.95 23.6405C1164.96 19.5337 1153.93 19.0654 1143.65 22.3115C1133.37 25.5577 1124.45 32.3276 1118.33 41.5215L1110.55 44.1539C1116.94 31.3701 1127.9 21.7125 1141.06 17.2613Z" fill="white" fill-opacity="0.04"/>
<path fill-rule="evenodd" clip-rule="evenodd" d="M-50.1182 328.153C-51.001 328.452 -51.7337 329.104 -52.1551 329.965C-52.5765 330.826 -52.6522 331.827 -52.3653 332.746C-52.0785 333.665 -51.4526 334.429 -50.6256 334.867C-49.7985 335.306 -48.8379 335.385 -47.955 335.086L-21.7154 326.207L-19.6756 328.802L-35.6058 334.193C-36.0997 334.288 -36.5683 334.492 -36.9804 334.792C-37.3924 335.091 -37.7383 335.478 -37.9951 335.928C-38.2519 336.378 -38.4135 336.879 -38.4692 337.399C-38.5249 337.919 -38.4735 338.445 -38.3182 338.943C-38.163 339.441 -37.9076 339.898 -37.569 340.284C-37.2305 340.671 -36.8167 340.978 -36.3552 341.184C-35.8936 341.391 -35.3951 341.493 -34.8928 341.482C-34.3906 341.472 -33.8962 341.351 -33.4427 341.126L-11.9013 333.837L-12.326 369.546L-1.15109 365.765L-0.906224 332.175C-0.838888 321.202 1.94635 315.671 5.37943 314.543C9.53555 313.136 9.0275 319.495 8.98946 322.979L8.56871 362.476L19.62 358.736L19.8725 324.969C19.8601 317.987 21.4169 309.193 26.1505 307.514C30.5132 305.961 29.807 313.471 29.7762 315.967L29.1876 355.499L40.372 351.714L40.9001 308.349C41.0225 301.091 35.8841 298.001 29.6737 300.102C25.1942 301.618 21.7003 305.45 19.4515 310.274C17.0594 306.988 13.597 305.63 8.63629 307.221C5.60335 308.275 2.92368 310.211 0.914215 312.801C-4.45396 306.953 -13.8027 304.893 -21.1259 307.371L-64.3133 321.985C-64.7966 322.09 -65.2531 322.301 -65.653 322.603C-66.053 322.905 -66.3875 323.291 -66.6348 323.736C-66.8822 324.181 -67.0368 324.675 -67.0887 325.187C-67.1405 325.698 -67.0885 326.215 -66.9359 326.704C-66.7833 327.194 -66.5335 327.644 -66.2029 328.026C-65.8722 328.408 -65.4681 328.713 -65.0167 328.922C-64.5654 329.131 -64.0769 329.238 -63.583 329.237C-63.0892 329.237 -62.601 329.128 -62.1502 328.918L-28.5209 317.538L-26.4525 320.123L-50.1182 328.153ZM-5.07246 280.739C4.89587 277.356 15.604 277.127 25.6972 280.082C35.7905 283.037 44.8153 289.043 51.6301 297.341C58.4449 305.639 62.7435 315.855 63.9819 326.697C65.2204 337.539 63.3432 348.521 58.5877 358.252C53.8322 367.983 46.4122 376.026 37.2663 381.365C28.1204 386.703 17.6596 389.097 7.20715 388.243C-3.24526 387.389 -13.2196 383.325 -21.4541 376.567C-29.6885 369.808 -35.8131 360.657 -39.053 350.273C-39.2631 349.6 -39.4733 348.926 -39.671 348.292L-34.5734 346.567C-34.3632 347.241 -34.1562 347.904 -33.9553 348.548C-30.6388 359.187 -23.9656 368.345 -15.0199 374.535C-6.07421 380.725 4.61836 383.583 15.3208 382.645C26.0232 381.706 36.1067 377.027 43.9331 369.367C51.7594 361.707 56.8689 351.517 58.4314 340.45C59.9938 329.384 57.9175 318.093 52.5398 308.411C47.162 298.729 38.7987 291.225 28.8086 287.119C18.8185 283.012 7.78847 282.543 -2.48954 285.79C-12.7675 289.036 -21.6897 295.806 -27.8065 305L-35.5861 307.632C-29.194 294.848 -18.236 285.191 -5.07246 280.739Z" fill="white" fill-opacity="0.04"/>
<path fill-rule="evenodd" clip-rule="evenodd" d="M-0.118136 592.75C-1.00096 593.048 -1.73367 593.7 -2.1551 594.561C-2.57651 595.423 -2.65212 596.423 -2.36528 597.343C-2.07843 598.262 -1.45262 599.025 -0.625538 599.464C0.201546 599.903 1.16215 599.982 2.04498 599.683L28.2846 590.804L30.3244 593.399L14.3942 598.789C13.9003 598.885 13.4317 599.089 13.0197 599.388C12.6076 599.687 12.2617 600.075 12.0049 600.525C11.7482 600.974 11.5865 601.476 11.5308 601.996C11.4751 602.516 11.5266 603.042 11.6818 603.539C11.837 604.037 12.0924 604.494 12.431 604.881C12.7695 605.267 13.1834 605.574 13.6449 605.781C14.1064 605.987 14.6049 606.089 15.1072 606.079C15.6094 606.069 16.1038 605.947 16.5573 605.722L38.0988 598.433L37.674 634.143L48.8489 630.361L49.0938 596.771C49.1611 585.798 51.9464 580.268 55.3794 579.139C59.5356 577.733 59.0275 584.091 58.9895 587.575L58.5687 627.072L69.62 623.333L69.8725 589.565C69.8601 582.583 71.4169 573.789 76.1505 572.111C80.5133 570.558 79.8071 578.068 79.7762 580.564L79.1876 620.096L90.3721 616.311L90.9001 572.945C91.0225 565.688 85.8841 562.597 79.6737 564.699C75.1942 566.215 71.7003 570.047 69.4515 574.87C67.0594 571.584 63.597 570.226 58.6363 571.817C55.6034 572.871 52.9237 574.808 50.9142 577.398C45.5461 571.549 36.1973 569.489 28.8742 571.967L-14.3133 586.581C-14.7966 586.687 -15.253 586.898 -15.653 587.199C-16.053 587.501 -16.3875 587.887 -16.6348 588.332C-16.8822 588.777 -17.0368 589.272 -17.0887 589.783C-17.1405 590.295 -17.0884 590.812 -16.9358 591.301C-16.7832 591.79 -16.5335 592.24 -16.2028 592.622C-15.8722 593.004 -15.4681 593.31 -15.0167 593.518C-14.5654 593.727 -14.0769 593.835 -13.583 593.834C-13.0892 593.833 -12.601 593.724 -12.1502 593.514L21.4792 582.135L23.5475 584.72L-0.118136 592.75ZM44.9276 545.336C54.8959 541.952 65.604 541.723 75.6973 544.678C85.7905 547.633 94.8154 553.64 101.63 561.937C108.445 570.235 112.743 580.451 113.982 591.294C115.22 602.136 113.343 613.117 108.588 622.848C103.832 632.579 96.4122 640.623 87.2663 645.961C78.1204 651.3 67.6596 653.693 57.2072 652.839C46.7548 651.985 36.7804 647.922 28.546 641.163C20.3115 634.404 14.1869 625.254 10.947 614.87C10.7369 614.196 10.5268 613.523 10.329 612.889L15.4267 611.164C15.6368 611.837 15.8438 612.501 16.0447 613.145C19.3613 623.783 26.0344 632.941 34.9801 639.131C43.9258 645.321 54.6184 648.179 65.3208 647.241C76.0232 646.303 86.1067 641.624 93.9331 633.964C101.759 626.304 106.869 616.113 108.431 605.047C109.994 593.981 107.918 582.69 102.54 573.008C97.162 563.326 88.7987 555.822 78.8086 551.715C68.8185 547.608 57.7885 547.14 47.5105 550.386C37.2325 553.632 28.3104 560.402 22.1936 569.596L14.4139 572.229C20.8061 559.445 31.7641 549.787 44.9276 545.336Z" fill="white" fill-opacity="0.04"/>
<path fill-rule="evenodd" clip-rule="evenodd" d="M351.882 327.331C350.999 327.63 350.266 328.282 349.845 329.143C349.423 330.004 349.348 331.005 349.635 331.924C349.922 332.844 350.547 333.607 351.374 334.046C352.202 334.484 353.162 334.563 354.045 334.264L380.285 325.385L382.324 327.98L366.394 333.371C365.9 333.466 365.432 333.671 365.02 333.97C364.608 334.269 364.262 334.656 364.005 335.106C363.748 335.556 363.587 336.057 363.531 336.577C363.475 337.097 363.527 337.624 363.682 338.121C363.837 338.619 364.092 339.076 364.431 339.462C364.769 339.849 365.183 340.156 365.645 340.362C366.106 340.569 366.605 340.671 367.107 340.661C367.609 340.65 368.104 340.529 368.557 340.304L390.099 333.015L389.674 368.724L400.849 364.943L401.094 331.353C401.161 320.38 403.946 314.849 407.379 313.721C411.536 312.314 411.027 318.673 410.989 322.157L410.569 361.654L421.62 357.915L421.872 324.147C421.86 317.165 423.417 308.371 428.15 306.692C432.513 305.139 431.807 312.649 431.776 315.145L431.188 354.677L442.372 350.893L442.9 307.527C443.023 300.269 437.884 297.179 431.674 299.28C427.194 300.796 423.7 304.628 421.451 309.452C419.059 306.166 415.597 304.808 410.636 306.399C407.603 307.453 404.924 309.389 402.914 311.979C397.546 306.131 388.197 304.071 380.874 306.549L337.687 321.163C337.203 321.269 336.747 321.479 336.347 321.781C335.947 322.083 335.612 322.469 335.365 322.914C335.118 323.359 334.963 323.853 334.911 324.365C334.859 324.876 334.912 325.393 335.064 325.883C335.217 326.372 335.466 326.822 335.797 327.204C336.128 327.586 336.532 327.891 336.983 328.1C337.435 328.309 337.923 328.416 338.417 328.416C338.911 328.415 339.399 328.306 339.85 328.096L373.479 316.716L375.547 319.301L351.882 327.331ZM396.928 279.918C406.896 276.534 417.604 276.305 427.697 279.26C437.79 282.215 446.815 288.221 453.63 296.519C460.445 304.817 464.743 315.033 465.982 325.875C467.22 336.717 465.343 347.699 460.588 357.43C455.832 367.161 448.412 375.204 439.266 380.543C430.12 385.881 419.66 388.275 409.207 387.421C398.755 386.567 388.78 382.503 380.546 375.745C372.311 368.986 366.187 359.836 362.947 349.451C362.737 348.778 362.527 348.104 362.329 347.47L367.427 345.745C367.637 346.419 367.844 347.082 368.045 347.726C371.361 358.365 378.034 367.523 386.98 373.713C395.926 379.903 406.618 382.761 417.321 381.823C428.023 380.885 438.107 376.205 445.933 368.545C453.759 360.885 458.869 350.695 460.431 339.629C461.994 328.562 459.918 317.271 454.54 307.589C449.162 297.907 440.799 290.403 430.809 286.297C420.818 282.19 409.788 281.722 399.51 284.968C389.232 288.214 380.31 294.984 374.194 304.178L366.414 306.81C372.806 294.026 383.764 284.369 396.928 279.918Z" fill="white" fill-opacity="0.04"/>
<path fill-rule="evenodd" clip-rule="evenodd" d="M401.882 592.969C400.999 593.268 400.266 593.92 399.845 594.781C399.423 595.642 399.348 596.643 399.635 597.562C399.922 598.481 400.547 599.245 401.374 599.683C402.202 600.122 403.162 600.201 404.045 599.902L430.285 591.023L432.324 593.618L416.394 599.009C415.9 599.104 415.432 599.308 415.02 599.608C414.608 599.907 414.262 600.294 414.005 600.744C413.748 601.194 413.587 601.695 413.531 602.215C413.475 602.735 413.527 603.261 413.682 603.759C413.837 604.257 414.092 604.714 414.431 605.1C414.769 605.487 415.183 605.794 415.645 606C416.106 606.207 416.605 606.309 417.107 606.298C417.609 606.288 418.104 606.167 418.557 605.942L440.099 598.653L439.674 634.362L450.849 630.581L451.094 596.991C451.161 586.018 453.946 580.487 457.379 579.359C461.536 577.952 461.027 584.311 460.989 587.795L460.569 627.292L471.62 623.552L471.872 589.785C471.86 582.803 473.417 574.008 478.15 572.33C482.513 570.777 481.807 578.287 481.776 580.783L481.188 620.315L492.372 616.53L492.9 573.165C493.023 565.907 487.884 562.817 481.674 564.918C477.194 566.434 473.7 570.266 471.451 575.09C469.059 571.804 465.597 570.446 460.636 572.037C457.603 573.091 454.924 575.027 452.914 577.617C447.546 571.769 438.197 569.709 430.874 572.187L387.687 586.8C387.203 586.906 386.747 587.117 386.347 587.419C385.947 587.721 385.612 588.107 385.365 588.552C385.118 588.997 384.963 589.491 384.911 590.003C384.859 590.514 384.912 591.031 385.064 591.52C385.217 592.01 385.466 592.46 385.797 592.842C386.128 593.224 386.532 593.529 386.983 593.738C387.435 593.947 387.923 594.054 388.417 594.053C388.911 594.053 389.399 593.944 389.85 593.734L423.479 582.354L425.547 584.939L401.882 592.969ZM446.928 545.555C456.896 542.172 467.604 541.943 477.697 544.898C487.79 547.853 496.815 553.859 503.63 562.157C510.445 570.455 514.743 580.671 515.982 591.513C517.22 602.355 515.343 613.337 510.588 623.068C505.832 632.799 498.412 640.842 489.266 646.181C480.12 651.519 469.66 653.913 459.207 653.059C448.755 652.205 438.78 648.141 430.546 641.382C422.311 634.624 416.187 625.473 412.947 615.089C412.737 614.416 412.527 613.742 412.329 613.108L417.427 611.383C417.637 612.057 417.844 612.72 418.045 613.364C421.361 624.003 428.034 633.161 436.98 639.351C445.926 645.54 456.618 648.399 467.321 647.46C478.023 646.522 488.107 641.843 495.933 634.183C503.759 626.523 508.869 616.333 510.431 605.266C511.994 594.2 509.918 582.909 504.54 573.227C499.162 563.545 490.799 556.041 480.809 551.935C470.818 547.828 459.788 547.359 449.51 550.606C439.232 553.852 430.31 560.622 424.194 569.816L416.414 572.448C422.806 559.664 433.764 550.007 446.928 545.555Z" fill="white" fill-opacity="0.04"/>
<path fill-rule="evenodd" clip-rule="evenodd" d="M753.882 327.331C752.999 327.63 752.266 328.282 751.845 329.143C751.423 330.004 751.348 331.005 751.635 331.924C751.922 332.844 752.547 333.607 753.374 334.046C754.202 334.484 755.162 334.563 756.045 334.264L782.285 325.386L784.324 327.98L768.394 333.371C767.9 333.466 767.432 333.671 767.02 333.97C766.608 334.269 766.262 334.656 766.005 335.106C765.748 335.556 765.587 336.057 765.531 336.577C765.475 337.097 765.527 337.624 765.682 338.121C765.837 338.619 766.092 339.076 766.431 339.462C766.769 339.849 767.183 340.156 767.645 340.362C768.106 340.569 768.605 340.671 769.107 340.661C769.609 340.65 770.104 340.529 770.557 340.304L792.099 333.015L791.674 368.724L802.849 364.943L803.094 331.353C803.161 320.38 805.946 314.849 809.379 313.721C813.536 312.314 813.027 318.673 812.989 322.157L812.569 361.654L823.62 357.915L823.872 324.147C823.86 317.165 825.417 308.371 830.15 306.692C834.513 305.139 833.807 312.649 833.776 315.145L833.188 354.677L844.372 350.893L844.9 307.527C845.023 300.269 839.884 297.179 833.674 299.28C829.194 300.796 825.7 304.628 823.451 309.452C821.059 306.166 817.597 304.808 812.636 306.399C809.603 307.453 806.924 309.389 804.914 311.979C799.546 306.131 790.197 304.071 782.874 306.549L739.687 321.163C739.203 321.269 738.747 321.479 738.347 321.781C737.947 322.083 737.612 322.469 737.365 322.914C737.118 323.359 736.963 323.853 736.911 324.365C736.859 324.876 736.912 325.393 737.064 325.883C737.217 326.372 737.466 326.822 737.797 327.204C738.128 327.586 738.532 327.891 738.983 328.1C739.435 328.309 739.923 328.416 740.417 328.416C740.911 328.415 741.399 328.306 741.85 328.096L775.479 316.716L777.547 319.301L753.882 327.331ZM798.928 279.918C808.896 276.534 819.604 276.305 829.697 279.26C839.79 282.215 848.815 288.221 855.63 296.519C862.445 304.817 866.743 315.033 867.982 325.875C869.22 336.717 867.343 347.699 862.588 357.43C857.832 367.161 850.412 375.204 841.266 380.543C832.12 385.881 821.66 388.275 811.207 387.421C800.755 386.567 790.78 382.503 782.546 375.745C774.311 368.986 768.187 359.836 764.947 349.451C764.737 348.778 764.527 348.104 764.329 347.47L769.427 345.745C769.637 346.419 769.844 347.082 770.045 347.726C773.361 358.365 780.034 367.523 788.98 373.713C797.926 379.903 808.618 382.761 819.321 381.823C830.023 380.885 840.107 376.205 847.933 368.545C855.759 360.885 860.869 350.695 862.431 339.629C863.994 328.562 861.918 317.271 856.54 307.589C851.162 297.907 842.799 290.403 832.809 286.297C822.818 282.19 811.788 281.722 801.51 284.968C791.232 288.214 782.31 294.984 776.194 304.178L768.414 306.81C774.806 294.026 785.764 284.369 798.928 279.918Z" fill="white" fill-opacity="0.04"/>
<path fill-rule="evenodd" clip-rule="evenodd" d="M803.882 592.969C802.999 593.268 802.266 593.92 801.845 594.781C801.424 595.642 801.348 596.643 801.635 597.562C801.922 598.481 802.547 599.245 803.374 599.683C804.202 600.122 805.162 600.201 806.045 599.902L832.285 591.023L834.324 593.618L818.394 599.009C817.9 599.104 817.432 599.308 817.02 599.608C816.608 599.907 816.262 600.294 816.005 600.744C815.748 601.194 815.587 601.695 815.531 602.215C815.475 602.735 815.527 603.261 815.682 603.759C815.837 604.257 816.092 604.714 816.431 605.1C816.77 605.487 817.183 605.794 817.645 606C818.106 606.207 818.605 606.309 819.107 606.298C819.609 606.288 820.104 606.167 820.557 605.942L842.099 598.653L841.674 634.362L852.849 630.581L853.094 596.991C853.161 586.018 855.946 580.487 859.379 579.359C863.536 577.952 863.028 584.311 862.989 587.795L862.569 627.292L873.62 623.552L873.873 589.785C873.86 582.803 875.417 574.008 880.151 572.33C884.513 570.777 883.807 578.287 883.776 580.783L883.188 620.315L894.372 616.53L894.9 573.165C895.023 565.907 889.884 562.817 883.674 564.918C879.194 566.434 875.7 570.266 873.452 575.09C871.059 571.804 867.597 570.446 862.636 572.037C859.603 573.091 856.924 575.027 854.914 577.617C849.546 571.769 840.197 569.709 832.874 572.187L789.687 586.8C789.203 586.906 788.747 587.117 788.347 587.419C787.947 587.721 787.613 588.107 787.365 588.552C787.118 588.997 786.963 589.491 786.911 590.003C786.86 590.514 786.912 591.031 787.064 591.52C787.217 592.01 787.467 592.46 787.797 592.842C788.128 593.224 788.532 593.529 788.983 593.738C789.435 593.947 789.923 594.054 790.417 594.053C790.911 594.053 791.399 593.944 791.85 593.734L825.479 582.354L827.548 584.939L803.882 592.969ZM848.928 545.555C858.896 542.172 869.604 541.943 879.697 544.898C889.791 547.853 898.815 553.859 905.63 562.157C912.445 570.455 916.744 580.671 917.982 591.513C919.22 602.355 917.343 613.337 912.588 623.068C907.832 632.799 900.412 640.842 891.266 646.181C882.12 651.519 871.66 653.913 861.207 653.059C850.755 652.205 840.78 648.141 832.546 641.382C824.312 634.624 818.187 625.473 814.947 615.089C814.737 614.416 814.527 613.742 814.329 613.108L819.427 611.383C819.637 612.057 819.844 612.72 820.045 613.364C823.361 624.003 830.034 633.161 838.98 639.351C847.926 645.54 858.618 648.399 869.321 647.46C880.023 646.522 890.107 641.843 897.933 634.183C905.759 626.523 910.869 616.333 912.431 605.266C913.994 594.2 911.918 582.909 906.54 573.227C901.162 563.545 892.799 556.041 882.809 551.935C872.819 547.828 861.789 547.359 851.511 550.606C841.233 553.852 832.31 560.622 826.194 569.816L818.414 572.448C824.806 559.664 835.764 550.007 848.928 545.555Z" fill="white" fill-opacity="0.04"/>
<path fill-rule="evenodd" clip-rule="evenodd" d="M1155.88 327.331C1155 327.63 1154.27 328.282 1153.84 329.143C1153.42 330.004 1153.35 331.005 1153.63 331.924C1153.92 332.844 1154.55 333.607 1155.37 334.045C1156.2 334.484 1157.16 334.563 1158.04 334.264L1184.28 325.385L1186.32 327.98L1170.39 333.371C1169.9 333.466 1169.43 333.671 1169.02 333.97C1168.61 334.269 1168.26 334.656 1168 335.106C1167.75 335.556 1167.59 336.057 1167.53 336.577C1167.48 337.097 1167.53 337.624 1167.68 338.121C1167.84 338.619 1168.09 339.076 1168.43 339.462C1168.77 339.849 1169.18 340.156 1169.64 340.362C1170.11 340.569 1170.6 340.671 1171.11 340.661C1171.61 340.65 1172.1 340.529 1172.56 340.304L1194.1 333.015L1193.67 368.724L1204.85 364.943L1205.09 331.353C1205.16 320.38 1207.95 314.849 1211.38 313.721C1215.54 312.314 1215.03 318.673 1214.99 322.157L1214.57 361.654L1225.62 357.915L1225.87 324.147C1225.86 317.165 1227.42 308.371 1232.15 306.692C1236.51 305.139 1235.81 312.649 1235.78 315.145L1235.19 354.677L1246.37 350.893L1246.9 307.527C1247.02 300.269 1241.88 297.179 1235.67 299.28C1231.19 300.796 1227.7 304.628 1225.45 309.452C1223.06 306.166 1219.6 304.808 1214.64 306.399C1211.6 307.453 1208.92 309.389 1206.91 311.979C1201.55 306.131 1192.2 304.071 1184.87 306.549L1141.69 321.163C1141.2 321.269 1140.75 321.479 1140.35 321.781C1139.95 322.083 1139.61 322.469 1139.37 322.914C1139.12 323.359 1138.96 323.853 1138.91 324.365C1138.86 324.876 1138.91 325.393 1139.06 325.883C1139.22 326.372 1139.47 326.822 1139.8 327.204C1140.13 327.586 1140.53 327.891 1140.98 328.1C1141.43 328.309 1141.92 328.416 1142.42 328.416C1142.91 328.415 1143.4 328.306 1143.85 328.096L1177.48 316.716L1179.55 319.301L1155.88 327.331ZM1200.93 279.917C1210.9 276.534 1221.6 276.305 1231.7 279.26C1241.79 282.215 1250.82 288.221 1257.63 296.519C1264.44 304.817 1268.74 315.033 1269.98 325.875C1271.22 336.717 1269.34 347.699 1264.59 357.43C1259.83 367.161 1252.41 375.204 1243.27 380.543C1234.12 385.881 1223.66 388.275 1213.21 387.421C1202.75 386.567 1192.78 382.503 1184.55 375.745C1176.31 368.986 1170.19 359.836 1166.95 349.451C1166.74 348.778 1166.53 348.104 1166.33 347.47L1171.43 345.745C1171.64 346.419 1171.84 347.082 1172.04 347.726C1175.36 358.365 1182.03 367.523 1190.98 373.713C1199.93 379.903 1210.62 382.761 1221.32 381.823C1232.02 380.885 1242.11 376.205 1249.93 368.545C1257.76 360.885 1262.87 350.695 1264.43 339.629C1265.99 328.562 1263.92 317.271 1258.54 307.589C1253.16 297.907 1244.8 290.403 1234.81 286.297C1224.82 282.19 1213.79 281.722 1203.51 284.968C1193.23 288.214 1184.31 294.984 1178.19 304.178L1170.41 306.81C1176.81 294.026 1187.76 284.369 1200.93 279.917Z" fill="white" fill-opacity="0.04"/>
<path fill-rule="evenodd" clip-rule="evenodd" d="M1205.88 592.969C1205 593.268 1204.27 593.92 1203.84 594.781C1203.42 595.642 1203.35 596.643 1203.63 597.562C1203.92 598.481 1204.55 599.245 1205.37 599.683C1206.2 600.122 1207.16 600.201 1208.04 599.902L1234.28 591.023L1236.32 593.618L1220.39 599.009C1219.9 599.104 1219.43 599.308 1219.02 599.608C1218.61 599.907 1218.26 600.294 1218 600.744C1217.75 601.194 1217.59 601.695 1217.53 602.215C1217.48 602.735 1217.53 603.261 1217.68 603.759C1217.84 604.256 1218.09 604.714 1218.43 605.1C1218.77 605.487 1219.18 605.794 1219.64 606C1220.11 606.207 1220.6 606.309 1221.11 606.298C1221.61 606.288 1222.1 606.167 1222.56 605.942L1244.1 598.653L1243.67 634.362L1254.85 630.581L1255.09 596.991C1255.16 586.018 1257.95 580.487 1261.38 579.359C1265.54 577.952 1265.03 584.311 1264.99 587.795L1264.57 627.292L1275.62 623.552L1275.87 589.785C1275.86 582.803 1277.42 574.008 1282.15 572.33C1286.51 570.777 1285.81 578.287 1285.78 580.783L1285.19 620.315L1296.37 616.53L1296.9 573.165C1297.02 565.907 1291.88 562.817 1285.67 564.918C1281.19 566.434 1277.7 570.266 1275.45 575.09C1273.06 571.804 1269.6 570.446 1264.64 572.037C1261.6 573.091 1258.92 575.027 1256.91 577.617C1251.55 571.769 1242.2 569.709 1234.87 572.187L1191.69 586.8C1191.2 586.906 1190.75 587.117 1190.35 587.419C1189.95 587.721 1189.61 588.107 1189.37 588.552C1189.12 588.997 1188.96 589.491 1188.91 590.003C1188.86 590.514 1188.91 591.031 1189.06 591.52C1189.22 592.01 1189.47 592.46 1189.8 592.842C1190.13 593.224 1190.53 593.529 1190.98 593.738C1191.43 593.947 1191.92 594.054 1192.42 594.053C1192.91 594.053 1193.4 593.944 1193.85 593.734L1227.48 582.354L1229.55 584.939L1205.88 592.969ZM1250.93 545.555C1260.9 542.172 1271.6 541.943 1281.7 544.898C1291.79 547.853 1300.82 553.859 1307.63 562.157C1314.44 570.455 1318.74 580.671 1319.98 591.513C1321.22 602.355 1319.34 613.337 1314.59 623.068C1309.83 632.799 1302.41 640.842 1293.27 646.181C1284.12 651.519 1273.66 653.913 1263.21 653.059C1252.75 652.205 1242.78 648.141 1234.55 641.382C1226.31 634.624 1220.19 625.473 1216.95 615.089C1216.74 614.416 1216.53 613.742 1216.33 613.108L1221.43 611.383C1221.64 612.057 1221.84 612.72 1222.04 613.364C1225.36 624.003 1232.03 633.161 1240.98 639.351C1249.93 645.54 1260.62 648.399 1271.32 647.46C1282.02 646.522 1292.11 641.843 1299.93 634.183C1307.76 626.523 1312.87 616.333 1314.43 605.266C1315.99 594.2 1313.92 582.909 1308.54 573.227C1303.16 563.545 1294.8 556.041 1284.81 551.935C1274.82 547.828 1263.79 547.359 1253.51 550.606C1243.23 553.852 1234.31 560.622 1228.19 569.816L1220.41 572.448C1226.81 559.664 1237.76 550.007 1250.93 545.555Z" fill="white" fill-opacity="0.04"/>
<path fill-rule="evenodd" clip-rule="evenodd" d="M77.7639 189.103C76.1463 189.65 74.8038 190.844 74.0318 192.423C73.2597 194.002 73.1213 195.835 73.6471 197.52C74.1728 199.205 75.3196 200.604 76.8352 201.409C78.3508 202.213 80.111 202.358 81.7286 201.81L129.808 185.541L133.546 190.298L104.357 200.174C103.452 200.349 102.593 200.724 101.838 201.272C101.083 201.821 100.449 202.531 99.979 203.355C99.5086 204.179 99.2125 205.098 99.1104 206.051C99.0084 207.004 99.1028 207.968 99.3873 208.88C99.6719 209.792 100.14 210.631 100.76 211.339C101.381 212.048 102.139 212.61 102.985 212.989C103.83 213.367 104.744 213.554 105.664 213.535C106.585 213.517 107.49 213.294 108.321 212.882L147.792 199.526L147.019 264.975L167.495 258.046L167.939 196.482C168.06 176.371 173.163 166.235 179.453 164.166C187.069 161.59 186.139 173.244 186.07 179.629L185.305 252.02L205.554 245.168L206.012 183.278C205.988 170.481 208.839 154.364 217.512 151.288C225.506 148.443 224.213 162.207 224.157 166.782L223.085 239.236L243.578 232.302L244.539 152.82C244.762 139.519 235.346 133.854 223.967 137.704C215.759 140.482 209.358 147.505 205.238 156.345C200.854 150.322 194.51 147.833 185.42 150.748C179.863 152.679 174.953 156.228 171.271 160.974C161.434 150.254 144.303 146.477 130.885 151.018L51.7523 177.794C50.8668 177.988 50.0304 178.375 49.2976 178.927C48.5648 179.48 47.9518 180.188 47.4987 181.004C47.0455 181.819 46.7623 182.725 46.6673 183.663C46.5724 184.6 46.6679 185.548 46.9476 186.445C47.2273 187.341 47.685 188.166 48.2909 188.867C48.8968 189.567 49.6374 190.127 50.4644 190.509C51.2915 190.892 52.1866 191.089 53.0916 191.088C53.9965 191.086 54.891 190.887 55.717 190.502L117.336 169.651L121.127 174.39L77.7639 189.103ZM160.297 102.21C178.562 96.0097 198.183 95.592 216.678 101.01C235.173 106.428 251.71 117.438 264.199 132.647C276.687 147.856 284.565 166.581 286.836 186.453C289.107 206.325 285.669 226.452 276.957 244.286C268.245 262.12 254.65 276.861 237.892 286.644C221.134 296.427 201.967 300.813 182.814 299.245C163.661 297.678 145.384 290.229 130.294 277.84C115.205 265.451 103.981 248.679 98.0428 229.646C97.6576 228.412 97.2725 227.177 96.91 226.016L106.25 222.855C106.636 224.089 107.015 225.306 107.383 226.486C113.462 245.984 125.691 262.771 142.084 274.117C158.477 285.464 178.07 290.704 197.68 288.986C217.291 287.269 235.767 278.694 250.106 264.657C264.446 250.619 273.806 231.942 276.668 211.66C279.529 191.378 275.723 170.683 265.867 152.937C256.012 135.191 240.686 121.436 222.38 113.908C204.074 106.379 183.863 105.519 165.03 111.466C146.198 117.414 129.85 129.821 118.643 146.67L104.389 151.494C116.099 128.065 136.177 110.366 160.297 102.21Z" fill="white" fill-opacity="0.04"/>
<path fill-rule="evenodd" clip-rule="evenodd" d="M132.764 454.741C131.146 455.288 129.804 456.482 129.032 458.061C128.26 459.64 128.121 461.473 128.647 463.158C129.173 464.843 130.32 466.242 131.835 467.047C133.351 467.851 135.111 467.996 136.729 467.448L184.808 451.179L188.546 455.935L159.357 465.812C158.452 465.987 157.593 466.362 156.838 466.91C156.083 467.459 155.449 468.169 154.979 468.993C154.509 469.817 154.212 470.736 154.11 471.689C154.008 472.642 154.103 473.606 154.387 474.518C154.672 475.43 155.14 476.269 155.76 476.977C156.381 477.685 157.139 478.248 157.985 478.627C158.83 479.005 159.744 479.192 160.664 479.173C161.585 479.155 162.49 478.932 163.321 478.52L202.792 465.164L202.019 530.613L222.495 523.684L222.939 462.12C223.06 442.009 228.163 431.873 234.453 429.804C242.069 427.228 241.139 438.882 241.07 445.267L240.305 517.658L260.554 510.806L261.012 448.916C260.988 436.119 263.839 420.002 272.512 416.926C280.506 414.081 279.213 427.845 279.157 432.42L278.085 504.874L298.578 497.939L299.539 418.458C299.762 405.157 290.346 399.492 278.967 403.342C270.759 406.12 264.358 413.143 260.238 421.983C255.854 415.96 249.51 413.471 240.42 416.386C234.863 418.317 229.953 421.866 226.271 426.612C216.434 415.892 199.303 412.115 185.885 416.656L106.752 443.432C105.867 443.626 105.03 444.012 104.298 444.565C103.565 445.118 102.952 445.826 102.499 446.641C102.046 447.457 101.762 448.363 101.667 449.301C101.572 450.238 101.668 451.186 101.948 452.083C102.227 452.979 102.685 453.804 103.291 454.505C103.897 455.205 104.637 455.765 105.464 456.147C106.292 456.53 107.187 456.727 108.092 456.726C108.996 456.724 109.891 456.525 110.717 456.14L172.336 435.289L176.127 440.028L132.764 454.741ZM215.296 367.848C233.562 361.648 253.183 361.23 271.678 366.648C290.173 372.066 306.71 383.076 319.199 398.285C331.687 413.494 339.565 432.219 341.836 452.091C344.107 471.963 340.669 492.09 331.957 509.924C323.245 527.758 309.65 542.499 292.892 552.282C276.134 562.065 256.967 566.45 237.814 564.883C218.661 563.316 200.384 555.867 185.294 543.478C170.205 531.089 158.981 514.317 153.043 495.284C152.658 494.05 152.272 492.815 151.91 491.653L161.25 488.493C161.636 489.727 162.015 490.944 162.383 492.124C168.462 511.622 180.691 528.408 197.084 539.755C213.477 551.101 233.07 556.342 252.68 554.624C272.291 552.907 290.767 544.332 305.106 530.294C319.446 516.256 328.806 497.58 331.668 477.298C334.529 457.016 330.723 436.321 320.867 418.575C311.012 400.829 295.686 387.074 277.38 379.546C259.074 372.017 238.863 371.157 220.03 377.104C201.198 383.052 184.85 395.459 173.643 412.308L159.389 417.132C171.099 393.703 191.177 376.004 215.296 367.848Z" fill="white" fill-opacity="0.04"/>
<path fill-rule="evenodd" clip-rule="evenodd" d="M479.764 189.103C478.146 189.65 476.804 190.844 476.032 192.423C475.26 194.002 475.121 195.835 475.647 197.52C476.173 199.205 477.32 200.604 478.835 201.409C480.351 202.213 482.111 202.358 483.729 201.81L531.808 185.541L535.546 190.298L506.357 200.174C505.452 200.349 504.593 200.724 503.838 201.272C503.083 201.821 502.449 202.531 501.979 203.355C501.509 204.179 501.213 205.098 501.11 206.051C501.008 207.004 501.103 207.968 501.387 208.88C501.672 209.792 502.14 210.631 502.76 211.339C503.381 212.048 504.139 212.61 504.985 212.989C505.83 213.367 506.744 213.554 507.664 213.535C508.585 213.517 509.491 213.294 510.321 212.882L549.792 199.526L549.019 264.975L569.495 258.046L569.939 196.482C570.06 176.371 575.163 166.235 581.453 164.166C589.069 161.59 588.139 173.244 588.07 179.629L587.305 252.02L607.554 245.168L608.012 183.278C607.988 170.481 610.839 154.364 619.512 151.288C627.506 148.443 626.214 162.207 626.157 166.782L625.085 239.236L645.578 232.302L646.539 152.82C646.762 139.519 637.346 133.854 625.967 137.704C617.759 140.482 611.358 147.505 607.238 156.345C602.854 150.322 596.51 147.833 587.42 150.748C581.863 152.679 576.953 156.228 573.271 160.974C563.434 150.254 546.303 146.477 532.885 151.018L453.752 177.794C452.867 177.988 452.03 178.375 451.298 178.927C450.565 179.48 449.952 180.188 449.499 181.004C449.046 181.819 448.762 182.725 448.667 183.663C448.572 184.6 448.668 185.548 448.948 186.445C449.227 187.341 449.685 188.166 450.291 188.867C450.897 189.567 451.637 190.127 452.464 190.509C453.292 190.892 454.187 191.089 455.092 191.088C455.997 191.086 456.891 190.887 457.717 190.502L519.336 169.651L523.127 174.39L479.764 189.103ZM562.297 102.21C580.562 96.0097 600.183 95.592 618.678 101.01C637.173 106.428 653.71 117.438 666.199 132.647C678.687 147.856 686.565 166.581 688.836 186.453C691.107 206.325 687.669 226.452 678.957 244.286C670.245 262.12 656.65 276.861 639.892 286.644C623.134 296.427 603.967 300.813 584.814 299.245C565.661 297.678 547.384 290.229 532.295 277.84C517.205 265.451 505.981 248.679 500.043 229.646C499.658 228.412 499.273 227.177 498.91 226.016L508.251 222.855C508.636 224.089 509.015 225.306 509.383 226.486C515.462 245.984 527.691 262.771 544.084 274.117C560.477 285.464 580.07 290.704 599.68 288.986C619.291 287.269 637.767 278.694 652.106 264.657C666.446 250.619 675.806 231.942 678.668 211.66C681.529 191.378 677.723 170.683 667.867 152.937C658.012 135.191 642.686 121.436 624.38 113.908C606.074 106.379 585.863 105.519 567.03 111.466C548.198 117.414 531.85 129.821 520.643 146.67L506.389 151.494C518.099 128.065 538.177 110.366 562.297 102.21Z" fill="white" fill-opacity="0.04"/>
<path fill-rule="evenodd" clip-rule="evenodd" d="M534.764 454.741C533.146 455.288 531.804 456.482 531.032 458.061C530.26 459.64 530.121 461.473 530.647 463.158C531.173 464.843 532.32 466.242 533.835 467.047C535.351 467.851 537.111 467.996 538.729 467.448L586.808 451.179L590.546 455.935L561.357 465.812C560.452 465.987 559.593 466.362 558.838 466.91C558.083 467.459 557.449 468.169 556.979 468.993C556.509 469.817 556.212 470.736 556.11 471.689C556.008 472.642 556.103 473.606 556.387 474.518C556.672 475.43 557.14 476.269 557.76 476.977C558.381 477.685 559.139 478.248 559.985 478.627C560.83 479.005 561.744 479.192 562.664 479.173C563.585 479.155 564.49 478.932 565.321 478.52L604.792 465.164L604.019 530.613L624.495 523.684L624.939 462.12C625.06 442.009 630.163 431.873 636.453 429.804C644.069 427.228 643.139 438.882 643.07 445.267L642.305 517.658L662.554 510.806L663.012 448.916C662.988 436.119 665.839 420.002 674.512 416.926C682.506 414.081 681.213 427.845 681.157 432.42L680.085 504.874L700.578 497.939L701.539 418.458C701.762 405.157 692.346 399.492 680.967 403.342C672.759 406.12 666.358 413.143 662.238 421.983C657.854 415.96 651.51 413.471 642.42 416.386C636.863 418.317 631.953 421.866 628.271 426.612C618.434 415.892 601.303 412.115 587.885 416.656L508.752 443.432C507.867 443.626 507.03 444.012 506.298 444.565C505.565 445.118 504.952 445.826 504.499 446.641C504.046 447.457 503.762 448.363 503.667 449.301C503.572 450.238 503.668 451.186 503.948 452.083C504.227 452.979 504.685 453.804 505.291 454.505C505.897 455.205 506.637 455.765 507.464 456.147C508.292 456.53 509.187 456.727 510.092 456.726C510.996 456.724 511.891 456.525 512.717 456.14L574.336 435.289L578.127 440.028L534.764 454.741ZM617.296 367.848C635.562 361.648 655.183 361.23 673.678 366.648C692.173 372.066 708.71 383.076 721.199 398.285C733.687 413.494 741.565 432.219 743.836 452.091C746.107 471.963 742.669 492.09 733.957 509.924C725.245 527.758 711.65 542.499 694.892 552.282C678.134 562.065 658.967 566.45 639.814 564.883C620.661 563.316 602.384 555.867 587.294 543.478C572.205 531.089 560.981 514.317 555.043 495.284C554.658 494.05 554.272 492.815 553.91 491.653L563.25 488.493C563.636 489.727 564.015 490.944 564.383 492.124C570.462 511.622 582.691 528.408 599.084 539.755C615.477 551.101 635.07 556.342 654.68 554.624C674.291 552.907 692.767 544.332 707.106 530.294C721.446 516.256 730.806 497.58 733.668 477.298C736.529 457.016 732.723 436.321 722.867 418.575C713.012 400.829 697.686 387.074 679.38 379.546C661.074 372.017 640.863 371.157 622.03 377.104C603.198 383.052 586.85 395.459 575.643 412.308L561.389 417.132C573.099 393.703 593.177 376.004 617.296 367.848Z" fill="white" fill-opacity="0.04"/>
<path fill-rule="evenodd" clip-rule="evenodd" d="M881.764 189.103C880.146 189.65 878.804 190.844 878.032 192.423C877.26 194.002 877.121 195.835 877.647 197.52C878.173 199.205 879.32 200.604 880.835 201.409C882.351 202.213 884.111 202.358 885.729 201.81L933.808 185.541L937.546 190.298L908.357 200.174C907.452 200.349 906.593 200.724 905.838 201.272C905.083 201.821 904.449 202.531 903.979 203.355C903.509 204.179 903.212 205.098 903.11 206.051C903.008 207.004 903.103 207.968 903.387 208.88C903.672 209.792 904.14 210.631 904.76 211.339C905.381 212.048 906.139 212.61 906.985 212.989C907.83 213.367 908.744 213.554 909.664 213.535C910.585 213.517 911.49 213.294 912.321 212.882L951.792 199.526L951.019 264.975L971.495 258.046L971.939 196.482C972.06 176.371 977.163 166.235 983.453 164.166C991.069 161.59 990.139 173.244 990.07 179.629L989.305 252.02L1009.55 245.168L1010.01 183.278C1009.99 170.481 1012.84 154.364 1021.51 151.288C1029.51 148.443 1028.21 162.207 1028.16 166.782L1027.09 239.236L1047.58 232.302L1048.54 152.82C1048.76 139.519 1039.35 133.854 1027.97 137.704C1019.76 140.482 1013.36 147.505 1009.24 156.345C1004.85 150.322 998.51 147.833 989.42 150.748C983.863 152.679 978.953 156.228 975.271 160.974C965.434 150.254 948.303 146.477 934.885 151.018L855.752 177.794C854.867 177.988 854.03 178.375 853.298 178.927C852.565 179.48 851.952 180.188 851.499 181.004C851.046 181.819 850.762 182.725 850.667 183.663C850.572 184.6 850.668 185.548 850.948 186.445C851.227 187.341 851.685 188.166 852.291 188.867C852.897 189.567 853.637 190.127 854.464 190.509C855.292 190.892 856.187 191.089 857.092 191.088C857.996 191.086 858.891 190.887 859.717 190.502L921.336 169.651L925.127 174.39L881.764 189.103ZM964.297 102.21C982.562 96.0097 1002.18 95.592 1020.68 101.01C1039.17 106.428 1055.71 117.438 1068.2 132.647C1080.69 147.856 1088.57 166.581 1090.84 186.453C1093.11 206.325 1089.67 226.452 1080.96 244.286C1072.24 262.12 1058.65 276.861 1041.89 286.644C1025.13 296.427 1005.97 300.813 986.814 299.245C967.661 297.678 949.384 290.229 934.294 277.84C919.205 265.451 907.981 248.679 902.043 229.646C901.658 228.412 901.272 227.177 900.91 226.016L910.25 222.855C910.636 224.089 911.015 225.306 911.383 226.486C917.462 245.984 929.691 262.771 946.084 274.117C962.477 285.464 982.07 290.704 1001.68 288.986C1021.29 287.269 1039.77 278.694 1054.11 264.657C1068.45 250.619 1077.81 231.942 1080.67 211.66C1083.53 191.378 1079.72 170.683 1069.87 152.937C1060.01 135.191 1044.69 121.436 1026.38 113.908C1008.07 106.379 987.863 105.519 969.03 111.466C950.198 117.414 933.85 129.821 922.643 146.67L908.389 151.494C920.099 128.065 940.177 110.366 964.297 102.21Z" fill="white" fill-opacity="0.04"/>
<path fill-rule="evenodd" clip-rule="evenodd" d="M936.764 454.741C935.146 455.288 933.804 456.482 933.032 458.061C932.26 459.64 932.121 461.473 932.647 463.158C933.173 464.843 934.32 466.242 935.835 467.047C937.351 467.851 939.111 467.996 940.729 467.448L988.808 451.179L992.546 455.935L963.357 465.812C962.452 465.987 961.593 466.362 960.838 466.91C960.083 467.459 959.449 468.169 958.979 468.993C958.509 469.817 958.212 470.736 958.11 471.689C958.008 472.642 958.103 473.606 958.387 474.518C958.672 475.43 959.14 476.269 959.76 476.977C960.381 477.685 961.139 478.248 961.985 478.627C962.83 479.005 963.744 479.192 964.664 479.173C965.585 479.155 966.49 478.932 967.321 478.52L1006.79 465.164L1006.02 530.613L1026.5 523.684L1026.94 462.12C1027.06 442.009 1032.16 431.873 1038.45 429.804C1046.07 427.228 1045.14 438.882 1045.07 445.267L1044.3 517.658L1064.55 510.806L1065.01 448.916C1064.99 436.119 1067.84 420.002 1076.51 416.926C1084.51 414.081 1083.21 427.845 1083.16 432.42L1082.09 504.874L1102.58 497.939L1103.54 418.458C1103.76 405.157 1094.35 399.492 1082.97 403.342C1074.76 406.12 1068.36 413.143 1064.24 421.983C1059.85 415.96 1053.51 413.471 1044.42 416.386C1038.86 418.317 1033.95 421.866 1030.27 426.612C1020.43 415.892 1003.3 412.115 989.885 416.656L910.752 443.432C909.867 443.626 909.03 444.012 908.298 444.565C907.565 445.118 906.952 445.826 906.499 446.641C906.046 447.457 905.762 448.363 905.667 449.301C905.572 450.238 905.668 451.186 905.948 452.083C906.227 452.979 906.685 453.804 907.291 454.505C907.897 455.205 908.637 455.765 909.464 456.147C910.292 456.53 911.187 456.727 912.092 456.726C912.996 456.724 913.891 456.525 914.717 456.14L976.336 435.289L980.127 440.028L936.764 454.741ZM1019.3 367.848C1037.56 361.648 1057.18 361.23 1075.68 366.648C1094.17 372.066 1110.71 383.076 1123.2 398.285C1135.69 413.494 1143.57 432.219 1145.84 452.091C1148.11 471.963 1144.67 492.09 1135.96 509.924C1127.24 527.758 1113.65 542.499 1096.89 552.282C1080.13 562.065 1060.97 566.45 1041.81 564.883C1022.66 563.316 1004.38 555.867 989.294 543.478C974.205 531.089 962.981 514.317 957.043 495.284C956.658 494.05 956.272 492.815 955.91 491.653L965.25 488.493C965.636 489.727 966.015 490.944 966.383 492.124C972.462 511.622 984.691 528.408 1001.08 539.755C1017.48 551.101 1037.07 556.342 1056.68 554.624C1076.29 552.907 1094.77 544.332 1109.11 530.294C1123.45 516.256 1132.81 497.58 1135.67 477.298C1138.53 457.016 1134.72 436.321 1124.87 418.575C1115.01 400.829 1099.69 387.074 1081.38 379.546C1063.07 372.017 1042.86 371.157 1024.03 377.104C1005.2 383.052 988.85 395.459 977.643 412.308L963.389 417.132C975.099 393.703 995.177 376.004 1019.3 367.848Z" fill="white" fill-opacity="0.04"/>
</svg>
