<svg width="200" height="52" viewBox="0 0 200 52" fill="none" xmlns="http://www.w3.org/2000/svg">
<path fill-rule="evenodd" clip-rule="evenodd" d="M107.314 7.36711L106.53 9.78294C105.608 7.31671 103.832 6.72457 102.075 6.82221C95.8751 7.15923 91.8617 13.2949 88.8251 21.6762C86.0426 31.8498 86.5901 38.7666 92.9081 39.0217C94.4446 39.0847 96.1564 38.25 97.6989 36.8768L96.3288 41.1257C95.491 43.7305 94.2298 49.1827 89.5389 49.274H81.4334L80.5472 51.5355H89.8262C97.6414 51.5355 101.358 47.2267 103.303 41.2832L114.382 7.4049L107.314 7.36711ZM104.144 17.2666L99.5317 31.4215C98.7151 33.9412 96.855 35.7838 95.0101 35.7838C91.0783 35.7838 95.0646 24.1299 95.5969 22.5771C96.4286 20.136 99.078 10.0507 102.677 10.0507C105.063 10.0507 105.674 12.0318 104.144 17.2666ZM140.489 39.28C143.026 39.28 145.44 38.0799 147.463 36.1807L146.762 38.4201L153.718 38.5051L163.94 7.36711H156.875L149.973 28.593C148.984 31.6451 147.333 35.7555 143.819 35.7838C141.266 35.8027 142.561 32.6908 143.516 29.771L150.775 7.36711H143.619L135.84 31.2451C134.367 35.7807 136.572 39.2957 140.489 39.2957V39.28ZM116.078 38.4957L122.548 18.4068C123.54 15.3516 126.129 10.2711 129.078 10.2176C131.282 10.183 130.369 13.235 129.422 16.1548L122.188 38.4989H129.332L137.437 13.6161C138.686 9.78294 136.866 6.65212 132.462 6.57653C129.927 6.53244 127.511 7.77657 125.488 9.67585L126.192 7.4364L119.236 7.35451L109.022 38.5051L116.078 38.4957ZM88.0115 47.2488L90.2829 40.4391H84.4064L82.1229 47.2614L88.0115 47.2488ZM87.4974 16.0383C89.5933 9.54986 87.1949 6.63952 79.8969 6.66157C74.7312 6.66157 70.8236 9.83963 68.8607 15.5816H73.7543C75.3482 10.6775 76.5821 9.13724 79.2951 9.14669C83.4476 9.16559 81.7691 12.035 81.0462 14.4508L79.6641 18.6147C70.1128 19.0966 66.8797 19.3171 64.1244 26.9174C63.6496 28.2276 63.1929 29.623 62.7604 31.0655L62.5063 32.6404C61.9347 36.2437 64.3664 38.9776 68.4343 38.8737C70.5514 38.8201 72.7018 37.661 73.9206 36.4547L73.101 38.5493H80.0875L86.1727 20.1045L87.4974 16.0383ZM78.8475 21.3739L75.944 30.1931C74.6979 33.9727 72.4901 35.8216 70.7147 35.7744C69.8074 35.7492 68.8305 35.0562 69.0573 33.5696L72.4538 24.0511C73.3611 21.7424 74.5104 20.766 78.4059 20.7754C78.7083 20.7754 78.9836 20.9329 78.8475 21.3487V21.3739ZM194.66 6.57023C191.796 6.57023 189.083 8.10099 186.917 10.4475C186.122 8.08209 184.368 6.62063 181.213 6.57023C178.403 6.52298 176.298 7.76397 174.341 9.6538L175.179 7.39861L168.099 7.42065L157.855 38.4989H164.999L171.229 19.0336C173.168 12.9736 175.978 10.0066 178.007 10.1703C180.291 10.353 179.713 12.2901 178.449 16.18L171.214 38.4989H178.276L184.492 19.021C185.217 16.6871 186.454 13.8461 188.048 12.0161C189.004 10.9137 190.084 10.1263 191.269 10.1578C193.819 10.227 192.691 13.1563 191.699 16.1674L184.371 38.4863H191.511L199.617 13.6035C200.945 9.52781 198.71 6.54818 194.645 6.54818L194.66 6.57023ZM9.23668 7.16867C8.67237 7.16867 8.13119 7.40213 7.73216 7.81767C7.33314 8.23322 7.10897 8.79682 7.10897 9.3845C7.10897 9.97217 7.33314 10.5358 7.73216 10.9513C8.13119 11.3669 8.67237 11.6003 9.23668 11.6003H26.0133L26.721 13.4901H16.5286C15.9742 13.5118 15.4495 13.7564 15.0647 14.1726C14.6798 14.5887 14.4648 15.144 14.4648 15.7217C14.4648 16.2995 14.6798 16.8547 15.0647 17.2709C15.4495 17.687 15.9742 17.9316 16.5286 17.9533L30.2929 17.9375L23.621 38.4989H30.7677L36.9648 19.1376C38.9852 12.8098 41.5923 10.1546 43.7759 10.1703C46.4344 10.1924 44.9857 13.7453 44.3445 15.7548L36.98 38.4989H44.039L50.2755 19.021C51.5276 14.98 54.0076 10.2018 57.0533 10.1578C59.8509 10.1168 58.0937 14.3185 57.6219 15.7516L50.1545 38.4863H57.2982L65.4249 13.5279C66.8071 9.35457 64.3876 6.55763 60.4225 6.55763C57.5614 6.55763 54.8515 8.08839 52.6829 10.4349C51.8875 8.06949 50.1363 6.60802 46.9758 6.55763C44.9464 6.52613 43.1771 7.24742 41.5318 8.27107C39.4842 3.83628 34.4546 0.828308 29.7757 0.828308H2.13526C1.85486 0.828308 1.57719 0.885822 1.31813 0.997573C1.05907 1.10932 0.823681 1.27312 0.625404 1.47961C0.427126 1.6861 0.269843 1.93124 0.162536 2.20103C0.0552291 2.47082 0 2.75998 0 3.052C0 3.34402 0.0552291 3.63318 0.162536 3.90297C0.269843 4.17276 0.427126 4.4179 0.625404 4.62439C0.823681 4.83088 1.05907 4.99468 1.31813 5.10643C1.57719 5.21818 1.85486 5.2757 2.13526 5.2757H23.6089L24.3378 7.16553L9.23668 7.16867Z" fill="white"/>
</svg>
